<svg xmlns="http://www.w3.org/2000/svg" viewBox="0 0 400 225"><defs><linearGradient id="g" x1="0" y1="0" x2="1" y2="1"><stop offset="0" stop-color="#0ea5e9"/><stop offset="1" stop-color="#6366f1"/></linearGradient></defs><rect width="400" height="225" fill="url(#g)"/><circle cx="335" cy="40" r="65" fill="#fff" opacity=".08"/><circle cx="45" cy="190" r="80" fill="#000" opacity=".12"/><g transform="translate(200,112)"><circle r="40" fill="#fff" opacity=".18"/><circle r="40" fill="none" stroke="#fff" stroke-opacity=".4" stroke-width="1.5"/><g transform="translate(-13,-13)" stroke="#fff" stroke-width="1.7" fill="none" stroke-linecap="round" stroke-linejoin="round"><path d="M9.5 2a3.5 3.5 0 0 0-3.5 3.5v.6A3 3 0 0 0 4 9v1a3 3 0 0 0 1 2.24V14a3.5 3.5 0 0 0 3.5 3.5M14.5 2a3.5 3.5 0 0 1 3.5 3.5v.6A3 3 0 0 1 20 9v1a3 3 0 0 1-1 2.24V14a3.5 3.5 0 0 1-3.5 3.5M9.5 5.5V19a2.5 2.5 0 0 0 5 0V5.5"/></g></g></svg>